<mxfile host="app.diagrams.net" agent="Mozilla/5.0 (Windows NT 10.0; Win64; x64) AppleWebKit/537.36 (KHTML, like Gecko) Chrome/136.0.0.0 Safari/537.36" version="26.2.14">
  <diagram name="Página-1" id="HzNsxPkuPO56g3VgkAQh">
    <mxGraphModel dx="2359" dy="1664" grid="1" gridSize="10" guides="1" tooltips="1" connect="1" arrows="1" fold="1" page="1" pageScale="1" pageWidth="827" pageHeight="1169" math="0" shadow="0">
      <root>
        <mxCell id="0" />
        <mxCell id="1" parent="0" />
        <mxCell id="fBK3fnEP6RwNhsTQ0gP4-67" style="edgeStyle=orthogonalEdgeStyle;rounded=0;orthogonalLoop=1;jettySize=auto;html=1;exitX=0.5;exitY=1;exitDx=0;exitDy=0;entryX=0.5;entryY=0;entryDx=0;entryDy=0;" edge="1" parent="1" source="fBK3fnEP6RwNhsTQ0gP4-1" target="fBK3fnEP6RwNhsTQ0gP4-17">
          <mxGeometry relative="1" as="geometry" />
        </mxCell>
        <mxCell id="fBK3fnEP6RwNhsTQ0gP4-68" style="edgeStyle=orthogonalEdgeStyle;rounded=0;orthogonalLoop=1;jettySize=auto;html=1;exitX=0.5;exitY=1;exitDx=0;exitDy=0;entryX=0.5;entryY=0;entryDx=0;entryDy=0;" edge="1" parent="1" source="fBK3fnEP6RwNhsTQ0gP4-1" target="fBK3fnEP6RwNhsTQ0gP4-18">
          <mxGeometry relative="1" as="geometry" />
        </mxCell>
        <mxCell id="fBK3fnEP6RwNhsTQ0gP4-69" style="edgeStyle=orthogonalEdgeStyle;rounded=0;orthogonalLoop=1;jettySize=auto;html=1;exitX=0.5;exitY=1;exitDx=0;exitDy=0;entryX=0.5;entryY=0;entryDx=0;entryDy=0;" edge="1" parent="1" source="fBK3fnEP6RwNhsTQ0gP4-1" target="fBK3fnEP6RwNhsTQ0gP4-3">
          <mxGeometry relative="1" as="geometry" />
        </mxCell>
        <mxCell id="fBK3fnEP6RwNhsTQ0gP4-70" style="edgeStyle=orthogonalEdgeStyle;rounded=0;orthogonalLoop=1;jettySize=auto;html=1;exitX=0.5;exitY=1;exitDx=0;exitDy=0;entryX=0.5;entryY=0;entryDx=0;entryDy=0;" edge="1" parent="1" source="fBK3fnEP6RwNhsTQ0gP4-1" target="fBK3fnEP6RwNhsTQ0gP4-55">
          <mxGeometry relative="1" as="geometry" />
        </mxCell>
        <mxCell id="fBK3fnEP6RwNhsTQ0gP4-1" value="INICIO" style="rounded=1;whiteSpace=wrap;html=1;" vertex="1" parent="1">
          <mxGeometry x="120" y="100" width="120" height="60" as="geometry" />
        </mxCell>
        <mxCell id="fBK3fnEP6RwNhsTQ0gP4-71" style="edgeStyle=orthogonalEdgeStyle;rounded=0;orthogonalLoop=1;jettySize=auto;html=1;exitX=0.5;exitY=1;exitDx=0;exitDy=0;entryX=0.5;entryY=0;entryDx=0;entryDy=0;" edge="1" parent="1" source="fBK3fnEP6RwNhsTQ0gP4-3" target="fBK3fnEP6RwNhsTQ0gP4-42">
          <mxGeometry relative="1" as="geometry">
            <Array as="points">
              <mxPoint x="500" y="1170" />
              <mxPoint x="180" y="1170" />
            </Array>
          </mxGeometry>
        </mxCell>
        <mxCell id="fBK3fnEP6RwNhsTQ0gP4-3" value="HOME - PARTIDOS PROGRAMADOS" style="rounded=0;whiteSpace=wrap;html=1;" vertex="1" parent="1">
          <mxGeometry x="440" y="430" width="120" height="60" as="geometry" />
        </mxCell>
        <mxCell id="fBK3fnEP6RwNhsTQ0gP4-13" style="edgeStyle=orthogonalEdgeStyle;rounded=0;orthogonalLoop=1;jettySize=auto;html=1;exitX=0.5;exitY=1;exitDx=0;exitDy=0;entryX=0.5;entryY=0;entryDx=0;entryDy=0;" edge="1" parent="1" source="fBK3fnEP6RwNhsTQ0gP4-8" target="fBK3fnEP6RwNhsTQ0gP4-12">
          <mxGeometry relative="1" as="geometry" />
        </mxCell>
        <mxCell id="fBK3fnEP6RwNhsTQ0gP4-14" value="NO" style="edgeLabel;html=1;align=center;verticalAlign=middle;resizable=0;points=[];" vertex="1" connectable="0" parent="fBK3fnEP6RwNhsTQ0gP4-13">
          <mxGeometry x="-0.2708" y="1" relative="1" as="geometry">
            <mxPoint as="offset" />
          </mxGeometry>
        </mxCell>
        <mxCell id="fBK3fnEP6RwNhsTQ0gP4-38" style="edgeStyle=orthogonalEdgeStyle;rounded=0;orthogonalLoop=1;jettySize=auto;html=1;exitX=0;exitY=0.5;exitDx=0;exitDy=0;entryX=1;entryY=0.5;entryDx=0;entryDy=0;" edge="1" parent="1" source="fBK3fnEP6RwNhsTQ0gP4-8" target="fBK3fnEP6RwNhsTQ0gP4-37">
          <mxGeometry relative="1" as="geometry" />
        </mxCell>
        <mxCell id="fBK3fnEP6RwNhsTQ0gP4-39" value="SI" style="edgeLabel;html=1;align=center;verticalAlign=middle;resizable=0;points=[];" vertex="1" connectable="0" parent="fBK3fnEP6RwNhsTQ0gP4-38">
          <mxGeometry x="-0.0829" y="-1" relative="1" as="geometry">
            <mxPoint x="-1" as="offset" />
          </mxGeometry>
        </mxCell>
        <mxCell id="fBK3fnEP6RwNhsTQ0gP4-8" value="¿EXISTE?" style="rhombus;whiteSpace=wrap;html=1;" vertex="1" parent="1">
          <mxGeometry x="-232" y="700" width="80" height="80" as="geometry" />
        </mxCell>
        <mxCell id="fBK3fnEP6RwNhsTQ0gP4-49" style="edgeStyle=orthogonalEdgeStyle;rounded=0;orthogonalLoop=1;jettySize=auto;html=1;exitX=0.5;exitY=1;exitDx=0;exitDy=0;entryX=0.5;entryY=0;entryDx=0;entryDy=0;" edge="1" parent="1" source="fBK3fnEP6RwNhsTQ0gP4-12" target="fBK3fnEP6RwNhsTQ0gP4-48">
          <mxGeometry relative="1" as="geometry" />
        </mxCell>
        <mxCell id="fBK3fnEP6RwNhsTQ0gP4-12" value="SE REGISTRA EQUIPO" style="rounded=0;whiteSpace=wrap;html=1;" vertex="1" parent="1">
          <mxGeometry x="-252" y="850" width="120" height="60" as="geometry" />
        </mxCell>
        <mxCell id="fBK3fnEP6RwNhsTQ0gP4-43" style="edgeStyle=orthogonalEdgeStyle;rounded=0;orthogonalLoop=1;jettySize=auto;html=1;exitX=0.5;exitY=1;exitDx=0;exitDy=0;entryX=0.5;entryY=0;entryDx=0;entryDy=0;" edge="1" parent="1" source="fBK3fnEP6RwNhsTQ0gP4-15" target="fBK3fnEP6RwNhsTQ0gP4-42">
          <mxGeometry relative="1" as="geometry" />
        </mxCell>
        <mxCell id="fBK3fnEP6RwNhsTQ0gP4-44" value="NO" style="edgeLabel;html=1;align=center;verticalAlign=middle;resizable=0;points=[];" vertex="1" connectable="0" parent="fBK3fnEP6RwNhsTQ0gP4-43">
          <mxGeometry x="-0.2667" y="3" relative="1" as="geometry">
            <mxPoint y="-1" as="offset" />
          </mxGeometry>
        </mxCell>
        <mxCell id="fBK3fnEP6RwNhsTQ0gP4-46" style="edgeStyle=orthogonalEdgeStyle;rounded=0;orthogonalLoop=1;jettySize=auto;html=1;exitX=0;exitY=0.5;exitDx=0;exitDy=0;entryX=0;entryY=0.25;entryDx=0;entryDy=0;" edge="1" parent="1" source="fBK3fnEP6RwNhsTQ0gP4-15" target="fBK3fnEP6RwNhsTQ0gP4-17">
          <mxGeometry relative="1" as="geometry">
            <Array as="points">
              <mxPoint x="-470" y="1150" />
              <mxPoint x="-470" y="445" />
            </Array>
          </mxGeometry>
        </mxCell>
        <mxCell id="fBK3fnEP6RwNhsTQ0gP4-47" value="SI" style="edgeLabel;html=1;align=center;verticalAlign=middle;resizable=0;points=[];" vertex="1" connectable="0" parent="fBK3fnEP6RwNhsTQ0gP4-46">
          <mxGeometry x="-0.8714" y="4" relative="1" as="geometry">
            <mxPoint as="offset" />
          </mxGeometry>
        </mxCell>
        <mxCell id="fBK3fnEP6RwNhsTQ0gP4-15" value="&lt;font style=&quot;font-size: 12px;&quot;&gt;¿QUIERES AGREGAR UN NUEVO EQUIPO?&lt;/font&gt;" style="rhombus;whiteSpace=wrap;html=1;rounded=0;" vertex="1" parent="1">
          <mxGeometry x="-232" y="1110" width="80" height="80" as="geometry" />
        </mxCell>
        <mxCell id="fBK3fnEP6RwNhsTQ0gP4-28" style="edgeStyle=orthogonalEdgeStyle;rounded=0;orthogonalLoop=1;jettySize=auto;html=1;exitX=0.5;exitY=1;exitDx=0;exitDy=0;entryX=0.5;entryY=0;entryDx=0;entryDy=0;" edge="1" parent="1" source="fBK3fnEP6RwNhsTQ0gP4-17" target="fBK3fnEP6RwNhsTQ0gP4-33">
          <mxGeometry relative="1" as="geometry">
            <mxPoint x="-62" y="590" as="targetPoint" />
          </mxGeometry>
        </mxCell>
        <mxCell id="fBK3fnEP6RwNhsTQ0gP4-29" value="CONSULTAR" style="edgeLabel;html=1;align=center;verticalAlign=middle;resizable=0;points=[];" vertex="1" connectable="0" parent="fBK3fnEP6RwNhsTQ0gP4-28">
          <mxGeometry x="-0.0926" y="-3" relative="1" as="geometry">
            <mxPoint x="3" y="-83" as="offset" />
          </mxGeometry>
        </mxCell>
        <mxCell id="fBK3fnEP6RwNhsTQ0gP4-34" value="INGRESAR" style="edgeLabel;html=1;align=center;verticalAlign=middle;resizable=0;points=[];" vertex="1" connectable="0" parent="fBK3fnEP6RwNhsTQ0gP4-28">
          <mxGeometry x="-0.2765" y="3" relative="1" as="geometry">
            <mxPoint y="-1" as="offset" />
          </mxGeometry>
        </mxCell>
        <mxCell id="fBK3fnEP6RwNhsTQ0gP4-17" value="REGISTRAR EQUIPO" style="rounded=0;whiteSpace=wrap;html=1;" vertex="1" parent="1">
          <mxGeometry x="-252" y="430" width="120" height="60" as="geometry" />
        </mxCell>
        <mxCell id="fBK3fnEP6RwNhsTQ0gP4-51" style="edgeStyle=orthogonalEdgeStyle;rounded=0;orthogonalLoop=1;jettySize=auto;html=1;exitX=0.5;exitY=1;exitDx=0;exitDy=0;startArrow=none;startFill=0;endArrow=none;" edge="1" parent="1" source="fBK3fnEP6RwNhsTQ0gP4-18">
          <mxGeometry relative="1" as="geometry">
            <mxPoint x="180.0344827586207" y="559.9999999999999" as="targetPoint" />
          </mxGeometry>
        </mxCell>
        <mxCell id="fBK3fnEP6RwNhsTQ0gP4-59" style="edgeStyle=orthogonalEdgeStyle;rounded=0;orthogonalLoop=1;jettySize=auto;html=1;exitX=0.5;exitY=1;exitDx=0;exitDy=0;" edge="1" parent="1" source="fBK3fnEP6RwNhsTQ0gP4-18" target="fBK3fnEP6RwNhsTQ0gP4-58">
          <mxGeometry relative="1" as="geometry" />
        </mxCell>
        <mxCell id="fBK3fnEP6RwNhsTQ0gP4-62" value="INGRESAR" style="edgeLabel;html=1;align=center;verticalAlign=middle;resizable=0;points=[];" vertex="1" connectable="0" parent="fBK3fnEP6RwNhsTQ0gP4-59">
          <mxGeometry x="-0.3905" y="2" relative="1" as="geometry">
            <mxPoint as="offset" />
          </mxGeometry>
        </mxCell>
        <mxCell id="fBK3fnEP6RwNhsTQ0gP4-18" value="CONSULTAR EQUIPO" style="rounded=0;whiteSpace=wrap;html=1;" vertex="1" parent="1">
          <mxGeometry x="120" y="430" width="120" height="60" as="geometry" />
        </mxCell>
        <mxCell id="fBK3fnEP6RwNhsTQ0gP4-63" style="edgeStyle=orthogonalEdgeStyle;rounded=0;orthogonalLoop=1;jettySize=auto;html=1;exitX=0.5;exitY=1;exitDx=0;exitDy=0;entryX=0.5;entryY=0;entryDx=0;entryDy=0;" edge="1" parent="1" source="fBK3fnEP6RwNhsTQ0gP4-25" target="fBK3fnEP6RwNhsTQ0gP4-42">
          <mxGeometry relative="1" as="geometry">
            <Array as="points">
              <mxPoint x="80" y="1080" />
              <mxPoint x="180" y="1080" />
            </Array>
          </mxGeometry>
        </mxCell>
        <mxCell id="fBK3fnEP6RwNhsTQ0gP4-25" value="PROGRAMACION&lt;div&gt;FECHAS&lt;/div&gt;" style="whiteSpace=wrap;html=1;rounded=0;" vertex="1" parent="1">
          <mxGeometry x="20" y="755" width="120" height="60" as="geometry" />
        </mxCell>
        <mxCell id="fBK3fnEP6RwNhsTQ0gP4-66" style="edgeStyle=orthogonalEdgeStyle;rounded=0;orthogonalLoop=1;jettySize=auto;html=1;exitX=0.5;exitY=1;exitDx=0;exitDy=0;entryX=0.5;entryY=0;entryDx=0;entryDy=0;" edge="1" parent="1" source="fBK3fnEP6RwNhsTQ0gP4-27" target="fBK3fnEP6RwNhsTQ0gP4-42">
          <mxGeometry relative="1" as="geometry">
            <Array as="points">
              <mxPoint x="300" y="1080" />
              <mxPoint x="180" y="1080" />
            </Array>
          </mxGeometry>
        </mxCell>
        <mxCell id="fBK3fnEP6RwNhsTQ0gP4-27" value="CONSULTAR PUNTOS" style="rounded=0;whiteSpace=wrap;html=1;" vertex="1" parent="1">
          <mxGeometry x="240" y="750" width="120" height="60" as="geometry" />
        </mxCell>
        <mxCell id="fBK3fnEP6RwNhsTQ0gP4-35" style="edgeStyle=orthogonalEdgeStyle;rounded=0;orthogonalLoop=1;jettySize=auto;html=1;exitX=0.5;exitY=1;exitDx=0;exitDy=0;entryX=0.5;entryY=0;entryDx=0;entryDy=0;" edge="1" parent="1" source="fBK3fnEP6RwNhsTQ0gP4-33" target="fBK3fnEP6RwNhsTQ0gP4-8">
          <mxGeometry relative="1" as="geometry" />
        </mxCell>
        <mxCell id="fBK3fnEP6RwNhsTQ0gP4-33" value="NOMBRE&lt;div&gt;EQUIPO&lt;/div&gt;" style="shape=parallelogram;perimeter=parallelogramPerimeter;whiteSpace=wrap;html=1;fixedSize=1;" vertex="1" parent="1">
          <mxGeometry x="-252" y="580" width="120" height="60" as="geometry" />
        </mxCell>
        <mxCell id="fBK3fnEP6RwNhsTQ0gP4-40" style="edgeStyle=orthogonalEdgeStyle;rounded=0;orthogonalLoop=1;jettySize=auto;html=1;exitX=0.5;exitY=0;exitDx=0;exitDy=0;entryX=0;entryY=0.5;entryDx=0;entryDy=0;" edge="1" parent="1" source="fBK3fnEP6RwNhsTQ0gP4-37" target="fBK3fnEP6RwNhsTQ0gP4-17">
          <mxGeometry relative="1" as="geometry">
            <Array as="points">
              <mxPoint x="-400" y="460" />
            </Array>
          </mxGeometry>
        </mxCell>
        <mxCell id="fBK3fnEP6RwNhsTQ0gP4-37" value="EL EQUIPO YA EXISTE" style="shape=parallelogram;perimeter=parallelogramPerimeter;whiteSpace=wrap;html=1;fixedSize=1;" vertex="1" parent="1">
          <mxGeometry x="-460" y="710" width="120" height="60" as="geometry" />
        </mxCell>
        <mxCell id="fBK3fnEP6RwNhsTQ0gP4-42" value="FIN" style="rounded=1;whiteSpace=wrap;html=1;" vertex="1" parent="1">
          <mxGeometry x="120" y="1340" width="120" height="60" as="geometry" />
        </mxCell>
        <mxCell id="fBK3fnEP6RwNhsTQ0gP4-50" style="edgeStyle=orthogonalEdgeStyle;rounded=0;orthogonalLoop=1;jettySize=auto;html=1;exitX=0.5;exitY=1;exitDx=0;exitDy=0;entryX=0.5;entryY=0;entryDx=0;entryDy=0;" edge="1" parent="1" source="fBK3fnEP6RwNhsTQ0gP4-48" target="fBK3fnEP6RwNhsTQ0gP4-15">
          <mxGeometry relative="1" as="geometry" />
        </mxCell>
        <mxCell id="fBK3fnEP6RwNhsTQ0gP4-48" value="EQUIPO REGISTRADO CON ÉXITO" style="shape=parallelogram;perimeter=parallelogramPerimeter;whiteSpace=wrap;html=1;fixedSize=1;" vertex="1" parent="1">
          <mxGeometry x="-252" y="1000" width="120" height="60" as="geometry" />
        </mxCell>
        <mxCell id="fBK3fnEP6RwNhsTQ0gP4-72" style="edgeStyle=orthogonalEdgeStyle;rounded=0;orthogonalLoop=1;jettySize=auto;html=1;exitX=0.5;exitY=1;exitDx=0;exitDy=0;entryX=0.5;entryY=0;entryDx=0;entryDy=0;" edge="1" parent="1" source="fBK3fnEP6RwNhsTQ0gP4-55" target="fBK3fnEP6RwNhsTQ0gP4-42">
          <mxGeometry relative="1" as="geometry">
            <Array as="points">
              <mxPoint x="680" y="1220" />
              <mxPoint x="180" y="1220" />
            </Array>
          </mxGeometry>
        </mxCell>
        <mxCell id="fBK3fnEP6RwNhsTQ0gP4-55" value="TABLA DE PUNTOS" style="rounded=0;whiteSpace=wrap;html=1;" vertex="1" parent="1">
          <mxGeometry x="620" y="430" width="120" height="60" as="geometry" />
        </mxCell>
        <mxCell id="fBK3fnEP6RwNhsTQ0gP4-60" style="edgeStyle=orthogonalEdgeStyle;rounded=0;orthogonalLoop=1;jettySize=auto;html=1;exitX=0.5;exitY=1;exitDx=0;exitDy=0;entryX=0.5;entryY=0;entryDx=0;entryDy=0;" edge="1" parent="1" source="fBK3fnEP6RwNhsTQ0gP4-58" target="fBK3fnEP6RwNhsTQ0gP4-25">
          <mxGeometry relative="1" as="geometry">
            <Array as="points">
              <mxPoint x="180" y="700" />
              <mxPoint x="80" y="700" />
            </Array>
          </mxGeometry>
        </mxCell>
        <mxCell id="fBK3fnEP6RwNhsTQ0gP4-61" style="edgeStyle=orthogonalEdgeStyle;rounded=0;orthogonalLoop=1;jettySize=auto;html=1;exitX=0.5;exitY=1;exitDx=0;exitDy=0;entryX=0.5;entryY=0;entryDx=0;entryDy=0;" edge="1" parent="1" source="fBK3fnEP6RwNhsTQ0gP4-58" target="fBK3fnEP6RwNhsTQ0gP4-27">
          <mxGeometry relative="1" as="geometry">
            <Array as="points">
              <mxPoint x="180" y="700" />
              <mxPoint x="300" y="700" />
            </Array>
          </mxGeometry>
        </mxCell>
        <mxCell id="fBK3fnEP6RwNhsTQ0gP4-58" value="NOMBRE EQUIPO" style="shape=parallelogram;perimeter=parallelogramPerimeter;whiteSpace=wrap;html=1;fixedSize=1;" vertex="1" parent="1">
          <mxGeometry x="120" y="580" width="120" height="60" as="geometry" />
        </mxCell>
      </root>
    </mxGraphModel>
  </diagram>
</mxfile>
